<svg width="111" height="87" viewBox="0 0 111 87" fill="none" xmlns="http://www.w3.org/2000/svg">
<path d="M27.9634 17.1694C27.9634 17.1694 6.04123 17.6836 2.54068 31.3337C-2.10677 49.456 33.2501 61.3528 33.2501 61.3528" stroke="#574939" stroke-width="3" stroke-linecap="round"/>
<path d="M103.666 1.06433L103.824 1.0554L107.678 50.0178C108.902 65.5718 97.2852 79.1731 81.7313 80.3972L56.2288 82.4043C40.6749 83.6284 27.0736 72.0118 25.8495 56.4578L21.9955 7.48849C22.1054 7.47424 22.2527 7.45521 22.4352 7.43181C22.8747 7.37545 23.5179 7.29371 24.3328 7.19224C25.9624 6.9893 28.2783 6.70745 31.0229 6.39187C36.5124 5.76065 43.7151 4.99466 50.5715 4.45505C59.6033 3.74424 72.9769 2.8909 84.094 2.2152C89.6522 1.87737 94.6459 1.58397 98.2499 1.37503C100.052 1.27056 101.507 1.18721 102.511 1.12997L103.666 1.06433Z" fill="#DBAB7E" stroke="#877C70" stroke-width="0.5"/>
<path d="M21.7278 7.27148C21.7278 7.27148 37.862 10.597 51.6482 8.90134C69.64 6.68843 104.055 0.792229 104.055 0.792229L107.927 49.9984C109.162 65.69 97.4427 79.4117 81.7511 80.6466L56.2486 82.6537C40.557 83.8887 26.8353 72.1692 25.6004 56.4776L21.7278 7.27148Z" fill="#877C70"/>
<line y1="-1" x2="11.5006" y2="-1" transform="matrix(0.66191 -0.749583 0.958305 0.285746 38.804 21.1213)" stroke="black" stroke-width="2"/>
<line y1="-1" x2="11.5006" y2="-1" transform="matrix(0.66191 -0.749583 0.958305 0.285746 72.0229 18.507)" stroke="black" stroke-width="2"/>
<line y1="-1" x2="11.5006" y2="-1" transform="matrix(-0.771021 -0.636809 -0.901807 0.43214 54.5964 19.8784)" stroke="black" stroke-width="2"/>
<line y1="-1" x2="11.5006" y2="-1" transform="matrix(-0.771021 -0.636809 -0.901807 0.43214 87.8159 17.264)" stroke="black" stroke-width="2"/>
<ellipse cx="46.8882" cy="25.4626" rx="7.48148" ry="4.1026" transform="rotate(-4.5 46.8882 25.4626)" fill="#EBE1D6"/>
<ellipse cx="47.908" cy="24.7944" rx="4.27513" ry="2.34435" transform="rotate(-4.5 47.908 24.7944)" fill="black"/>
<ellipse cx="7.48148" cy="4.1026" rx="7.48148" ry="4.1026" transform="matrix(-0.996917 0.0784591 0.0784591 0.996917 88.1204 18.1022)" fill="#EBE1D6"/>
<ellipse cx="4.27513" cy="2.34435" rx="4.27513" ry="2.34435" transform="matrix(-0.996917 0.0784591 0.0784591 0.996917 87.147 19.3546)" fill="black"/>
<path d="M68.7274 38.8253C66.4279 37.6692 66.9243 36.9617 63.9979 41.8714C63.1618 43.2742 64.4483 42.1998 66.4648 45.1536C67.713 46.9819 68.4562 49.3287 68.6597 44.9808C72.1172 40.3769 71.0717 40.5507 68.7274 38.8253Z" fill="black" stroke="black" stroke-width="2" stroke-linecap="round"/>
<path d="M49.2076 60.9899C62.1933 68.0057 61.1883 59.1539 64.7311 58.8751C69.4385 58.5046 72.4908 67.1953 81.0992 59.9684" stroke="black" stroke-width="2" stroke-linecap="round"/>
</svg>
